<?xml version="1.0" encoding="UTF-8"?><svg id="Layer_1" xmlns="http://www.w3.org/2000/svg" viewBox="0 0 97.8 28.61"><defs><style>.cls-1{fill:#fff;}</style></defs><g><path class="cls-1" d="M.45,28.15c-.29,0-.45-.16-.45-.45V8.66c0-.25,.08-.45,.33-.57,2.34-.99,5.05-1.6,7.88-1.6,5.5,0,9.23,2.59,9.23,8.86v12.35c0,.29-.16,.45-.49,.45h-2.42c-.29,0-.45-.16-.45-.45V15.43c0-4.27-2.18-5.91-5.87-5.91-1.72,0-3.57,.33-4.84,.74V27.7c0,.29-.16,.45-.49,.45H.45Z"/><path class="cls-1" d="M39.44,18.67c0,.33-.16,.49-.45,.49h-13.42v1.72c0,3.08,2.3,4.72,5.34,4.72,2.83,0,4.76-1.11,6.28-2.3,.25-.16,.49-.12,.66,.12l1.19,1.56c.21,.25,.16,.45-.08,.66-2.05,1.72-4.68,2.95-8.13,2.95-4.43,0-8.66-2.54-8.66-7.72v-6.24c0-5.62,4.19-8.17,8.7-8.17s8.58,2.54,8.58,8.17c0,0,0,4.02,0,4.02Zm-8.58-9.15c-3.08,0-5.29,1.6-5.29,5.13v1.72h10.59v-1.72c0-3.49-2.3-5.13-5.29-5.13Z"/><path class="cls-1" d="M51.34,25.49c.45,0,1.23-.04,1.97-.08,.33,0,.49,.16,.49,.45v2.18c0,.25-.12,.45-.41,.49-.74,.04-1.68,.08-2.22,.08-4.1,0-7.14-2.22-7.14-7.26V2.22c0-.33,.16-.49,.49-.49h2.13c.25,0,.41,.16,.45,.45l.29,4.97h5.34c.29,0,.45,.16,.45,.45v2.05c0,.33-.16,.49-.45,.49h-5.34v11.04c0,2.71,1.4,4.31,3.94,4.31Z"/><path class="cls-1" d="M64.27,28.6c-2.83,0-5.66-.82-8.13-2.63-.25-.16-.25-.41-.12-.66l1.11-1.89c.16-.29,.37-.33,.66-.12,1.97,1.48,4.23,2.3,6.57,2.3,2.75,0,4.84-1.15,4.84-3.28,0-2.3-2.54-2.83-4.84-3.28-2.96-.62-8-1.76-8-6.53,0-4.19,3.98-6.03,8.09-6.03,2.59,0,4.88,.66,7.14,1.93,.29,.12,.33,.37,.16,.62l-1.11,1.85c-.12,.25-.37,.33-.62,.16-1.68-.9-3.69-1.52-5.75-1.52-2.87,0-4.6,1.15-4.6,3,0,2.26,2.42,2.87,5.34,3.45,3.28,.66,7.59,1.6,7.59,6.2,0,4.19-3.53,6.44-8.33,6.44Z"/></g><g><circle class="cls-1" cx="83.48" cy="4.78" r="4.77"/><circle class="cls-1" cx="93.6" cy="4.78" r="3.05"/><circle class="cls-1" cx="93.6" cy="14.88" r="4.2"/><circle class="cls-1" cx="83.48" cy="24.98" r="3.63"/></g></svg>