<?xml version="1.0" encoding="UTF-8"?><svg id="Layer_2" xmlns="http://www.w3.org/2000/svg" xmlns:xlink="http://www.w3.org/1999/xlink" viewBox="0 0 507.5 1002.5"><defs><style>.cls-1,.cls-2,.cls-3,.cls-4,.cls-5,.cls-6,.cls-7,.cls-8,.cls-9,.cls-10,.cls-11,.cls-12,.cls-13,.cls-14{fill:none;}.cls-2{stroke:#ebcf49;}.cls-2,.cls-3,.cls-4,.cls-5,.cls-6,.cls-7,.cls-8,.cls-9,.cls-10,.cls-11,.cls-12{stroke-miterlimit:10;}.cls-2,.cls-3,.cls-4,.cls-5,.cls-6,.cls-7,.cls-8,.cls-9,.cls-10,.cls-14{stroke-width:3px;}.cls-3,.cls-14{stroke:#373438;}.cls-4{stroke:#0c0c0c;}.cls-5{stroke:#01aa71;}.cls-6{stroke:#00a0c5;}.cls-7{stroke:#db3c37;}.cls-8,.cls-11,.cls-13{stroke:#898891;}.cls-9{stroke:#49494c;}.cls-10{stroke:#56555a;}.cls-11,.cls-13{stroke-width:2px;}.cls-12{stroke:#000;}.cls-13,.cls-14{stroke-linejoin:round;}.cls-14{stroke-linecap:round;}</style></defs><g id="Layer_1-2"><g><path class="cls-10" d="M466.83,1001H27.17c-14.17,0-25.67-11.49-25.67-25.67V99.2C1.5,42.48,34.28,1.5,91,1.5l.5,.09,310.71,.83-.21,.09c55.15,0,90.5,38.71,90.5,93.85V975.33c0,14.17-11.49,25.67-25.67,25.67Z"/><path class="cls-10" d="M492.11,169.39c8.27,8.27,13.89,39.48,13.89,52.11V891.5c0,12.42-5.46,35.47-13.5,43.71"/><rect class="cls-9" x="12.51" y="81" width="468.12" height="910" rx="25.47" ry="25.47"/><rect class="cls-4" x="52.5" y="118" width="382" height="537" rx="13.28" ry="13.28"/><rect class="cls-6" x="91.5" y="163" width="305" height="389"/><rect class="cls-1" x="52.5" y="673" width="92" height="64.75"/><path class="cls-11" d="M62.5,721.42v-27.72c0-6.46,4.8-11.7,10.72-11.7h53.93c5.92,0,10.72,5.24,10.72,11.7v27.72c0,6.46-4.8,11.7-10.72,11.7h-53.93c-5.92,0-10.72-5.24-10.72-11.7Z"/><rect class="cls-1" x="144.5" y="673" width="92" height="64.75"/><path class="cls-11" d="M158.81,721.42v-27.72c0-6.46,4.8-11.7,10.72-11.7h53.93c5.92,0,10.72,5.24,10.72,11.7v27.72c0,6.46-4.8,11.7-10.72,11.7h-53.93c-5.92,0-10.72-5.24-10.72-11.7Z"/><rect class="cls-1" x="236.5" y="673" width="92" height="64.75"/><path class="cls-13" d="M255.12,721.42v-27.72c0-6.46,4.8-11.7,10.72-11.7h53.93c5.92,0,10.72,5.24,10.72,11.7v27.72c0,6.46-4.8,11.7-10.72,11.7h-53.93c-5.92,0-10.72-5.24-10.72-11.7Z"/><rect class="cls-1" x="52.5" y="737.75" width="92" height="64.75"/><path class="cls-11" d="M62.5,795.38v-27.72c0-6.46,4.8-11.7,10.72-11.7h53.93c5.92,0,10.72,5.24,10.72,11.7v27.72c0,6.46-4.8,11.7-10.72,11.7h-53.93c-5.92,0-10.72-5.24-10.72-11.7Z"/><rect class="cls-1" x="144.5" y="737.75" width="92" height="64.75"/><path class="cls-11" d="M158.81,795.38v-27.72c0-6.46,4.8-11.7,10.72-11.7h53.93c5.92,0,10.72,5.24,10.72,11.7v27.72c0,6.46-4.8,11.7-10.72,11.7h-53.93c-5.92,0-10.72-5.24-10.72-11.7Z"/><rect class="cls-1" x="236.5" y="737.75" width="92" height="64.75"/><path class="cls-11" d="M255.12,795.38v-27.72c0-6.46,4.8-11.7,10.72-11.7h53.93c5.92,0,10.72,5.24,10.72,11.7v27.72c0,6.46-4.8,11.7-10.72,11.7h-53.93c-5.92,0-10.72-5.24-10.72-11.7Z"/><rect class="cls-1" x="52.5" y="802.5" width="92" height="64.75"/><path class="cls-11" d="M62.5,869.34v-27.72c0-6.46,4.8-11.7,10.72-11.7h53.93c5.92,0,10.72,5.24,10.72,11.7v27.72c0,6.46-4.8,11.7-10.72,11.7h-53.93c-5.92,0-10.72-5.24-10.72-11.7Z"/><rect class="cls-1" x="144.5" y="802.5" width="92" height="64.75"/><path class="cls-11" d="M158.81,869.34v-27.72c0-6.46,4.8-11.7,10.72-11.7h53.93c5.92,0,10.72,5.24,10.72,11.7v27.72c0,6.46-4.8,11.7-10.72,11.7h-53.93c-5.92,0-10.72-5.24-10.72-11.7Z"/><rect class="cls-1" x="236.5" y="802.5" width="92" height="64.75"/><path class="cls-11" d="M255.12,869.34v-27.72c0-6.46,4.8-11.7,10.72-11.7h53.93c5.92,0,10.72,5.24,10.72,11.7v27.72c0,6.46-4.8,11.7-10.72,11.7h-53.93c-5.92,0-10.72-5.24-10.72-11.7Z"/><rect class="cls-1" x="52.5" y="867.25" width="92" height="64.75"/><path class="cls-11" d="M62.5,945.39v-22.77c0-5.31,4.8-9.61,10.72-9.61h53.93c5.92,0,10.72,4.3,10.72,9.61v22.77c0,5.31-4.8,9.61-10.72,9.61h-53.93c-5.92,0-10.72-4.3-10.72-9.61Z"/><rect class="cls-1" x="144.5" y="867.25" width="92" height="64.75"/><path class="cls-11" d="M158.81,943.3v-27.72c0-6.46,4.8-11.7,10.72-11.7h53.93c5.92,0,10.72,5.24,10.72,11.7v27.72c0,6.46-4.8,11.7-10.72,11.7h-53.93c-5.92,0-10.72-5.24-10.72-11.7Z"/><rect class="cls-1" x="236.5" y="867.25" width="92" height="64.75"/><path class="cls-11" d="M255.12,945.39v-22.77c0-5.31,4.8-9.61,10.72-9.61h53.93c5.92,0,10.72,4.3,10.72,9.61v22.77c0,5.31-4.8,9.61-10.72,9.61h-53.93c-5.92,0-10.72-4.3-10.72-9.61Z"/><path class="cls-8" d="M418.4,737.95s-53.66,2.33-66-10.8c-6.13-6.52-5.61-34.94,2.6-38.64,9.68-4.36,63.4-8.52,63.4-8.52,3.92,0,7.1,3.73,7.1,8.33v41.29c0,4.6-3.18,8.33-7.1,8.33Z"/><path class="cls-7" d="M414.87,809.55h-54.74c-7.53,0-13.63-6.81-13.63-15.2v-29.82c0-8.4,6.1-15.2,13.63-15.2h47.34c9.03,0,21.03,23.42,21.03,23.46v21.57c0,8.4-6.1,15.2-13.63,15.2Z"/><rect class="cls-2" x="346.5" y="818.64" width="82" height="52.27" rx="15.88" ry="15.88"/><rect class="cls-5" x="346.5" y="884.55" width="82" height="70.45" rx="16.08" ry="16.08"/><path class="cls-14" d="M141,630.5l-50.92,.5c-2.25,0-4.08-1.61-4.08-3.61v-35.29c0-1.99,1.83-3.61,4.08-3.61h60.34c.8,0,1.56,.21,2.19,.56,1.46,.82,2.03,2.66,1.47,4.24l-13.08,37.2"/><path class="cls-3" d="M180.92,590h56.84c2.12,0,3.25,1.75,2.51,3.9l-13.02,38.2c-.73,2.15-3.05,3.9-5.17,3.9h-56.84c-2.12,0-3.25-1.75-2.51-3.9l13.02-38.2c.73-2.15,3.05-3.9,5.17-3.9Z"/><path class="cls-3" d="M265.89,590.75h56.48c2.11,0,3.12,1.76,2.26,3.92l-15.21,38.4c-.86,2.17-3.26,3.92-5.37,3.92h-56.48c-2.11,0-3.12-1.76-2.26-3.92l15.21-38.4c.86-2.17,3.26-3.92,5.37-3.92Z"/><path class="cls-3" d="M348.35,588.5h46.65c2.14,0,5,3,5,5v28c0,.73-.65,2.27-1.58,3.92-1.61,2.86-4.06,6.08-5.42,6.08l-59.77,2c-2.14,0-3.3-1.71-2.59-3.82l12.56-37.37c.71-2.11,3.02-3.82,5.16-3.82Z"/><circle cx="386" cy="706.5" r="8.5"/><circle class="cls-12" cx="386" cy="706.5" r="12"/><g id="lKCY8a.tif"><image id="Layer_0" width="98" height="29" transform="translate(209.5 334) scale(.93)" xlink:href="Asset 21.png"/></g></g></g></svg>