<?xml version="1.0" encoding="UTF-8"?><svg id="Layer_1" xmlns="http://www.w3.org/2000/svg" viewBox="0 0 254.56 76.92"><defs><style>.cls-1{fill:#fff;}</style></defs><g id="sts-logo-white"><g id="name"><path class="cls-1" d="m12.66,61.11c1.89,2.28,4.01,4.06,6.36,5.34,2.35,1.28,5.02,1.92,8.01,1.92,3.99,0,7.19-1.1,9.61-3.31,2.42-2.21,3.63-5.02,3.63-8.44s-.78-6.02-2.35-8.01c-1.57-1.99-3.62-3.61-6.14-4.86-2.53-1.24-5.22-2.37-8.07-3.36-1.85-.64-3.92-1.48-6.2-2.51-2.28-1.03-4.45-2.35-6.52-3.95-2.07-1.6-3.76-3.58-5.07-5.93-1.32-2.35-1.98-5.24-1.98-8.65,0-3.7.93-7.01,2.78-9.94,1.85-2.92,4.42-5.22,7.69-6.89,3.27-1.67,7.01-2.51,11.22-2.51s7.6.77,10.63,2.3c3.03,1.53,5.61,3.49,7.74,5.88,2.14,2.39,3.81,4.9,5.02,7.53l-7.8,4.49c-.93-1.85-2.1-3.67-3.53-5.45-1.43-1.78-3.15-3.24-5.18-4.38-2.03-1.14-4.51-1.71-7.43-1.71-4.06,0-7.02.98-8.87,2.94-1.85,1.96-2.78,4.15-2.78,6.57,0,2.07.53,3.97,1.6,5.72,1.07,1.75,2.87,3.38,5.39,4.91,2.53,1.53,5.96,3.04,10.31,4.54,1.99.71,4.09,1.64,6.3,2.78,2.21,1.14,4.25,2.58,6.14,4.33,1.89,1.75,3.44,3.85,4.65,6.3,1.21,2.46,1.82,5.4,1.82,8.81s-.62,6.23-1.87,8.87c-1.25,2.64-2.96,4.88-5.13,6.73-2.17,1.85-4.63,3.28-7.37,4.27-2.74,1-5.61,1.5-8.6,1.5-4.06,0-7.82-.87-11.27-2.62-3.46-1.74-6.48-4.06-9.08-6.94-2.6-2.88-4.72-5.96-6.36-9.24l7.26-4.91c1.71,2.99,3.51,5.63,5.4,7.91Z"/><path class="cls-1" d="m55.55,1.07h47.54v8.55h-19.23v66.24h-9.08V9.61h-19.23V1.07Z"/><path class="cls-1" d="m120.88,61.11c1.89,2.28,4.01,4.06,6.36,5.34,2.35,1.28,5.02,1.92,8.01,1.92,3.99,0,7.19-1.1,9.61-3.31,2.42-2.21,3.63-5.02,3.63-8.44s-.78-6.02-2.35-8.01c-1.57-1.99-3.62-3.61-6.14-4.86-2.53-1.24-5.22-2.37-8.07-3.36-1.85-.64-3.92-1.48-6.2-2.51-2.28-1.03-4.45-2.35-6.52-3.95-2.07-1.6-3.76-3.58-5.07-5.93-1.32-2.35-1.98-5.24-1.98-8.65,0-3.7.93-7.01,2.78-9.94,1.85-2.92,4.42-5.22,7.69-6.89,3.27-1.67,7.01-2.51,11.22-2.51s7.6.77,10.63,2.3c3.03,1.53,5.61,3.49,7.74,5.88,2.14,2.39,3.81,4.9,5.02,7.53l-7.8,4.49c-.93-1.85-2.1-3.67-3.53-5.45-1.43-1.78-3.15-3.24-5.18-4.38-2.03-1.14-4.51-1.71-7.43-1.71-4.06,0-7.02.98-8.87,2.94-1.85,1.96-2.78,4.15-2.78,6.57,0,2.07.53,3.97,1.6,5.72,1.07,1.75,2.87,3.38,5.39,4.91,2.53,1.53,5.96,3.04,10.31,4.54,1.99.71,4.09,1.64,6.3,2.78,2.21,1.14,4.25,2.58,6.14,4.33,1.89,1.75,3.44,3.85,4.65,6.3,1.21,2.46,1.82,5.4,1.82,8.81s-.62,6.23-1.87,8.87c-1.25,2.64-2.96,4.88-5.13,6.73-2.17,1.85-4.63,3.28-7.37,4.27-2.74,1-5.61,1.5-8.6,1.5-4.06,0-7.82-.87-11.27-2.62-3.46-1.74-6.48-4.06-9.08-6.94-2.6-2.88-4.72-5.96-6.36-9.24l7.26-4.91c1.71,2.99,3.51,5.63,5.4,7.91Z"/></g><g id="figur"><polygon class="cls-1" points="188.27 33.01 169.3 .14 207.25 .14 188.27 33.01"/><polygon class="cls-1" points="212.3 75.21 193.33 42.35 231.27 42.35 212.3 75.21"/><polygon class="cls-1" points="235.59 33.01 216.61 .14 254.56 .14 235.59 33.01"/><polygon class="cls-1" points="211.92 .25 215.93 7.2 207.9 7.2 211.92 .25"/><polygon class="cls-1" points="228.72 30.7 232.73 37.65 224.7 37.65 228.72 30.7"/><polygon class="cls-1" points="195.12 30.7 199.13 37.65 191.1 37.65 195.12 30.7"/></g></g></svg>